<mxfile host="Electron" modified="2024-06-03T09:37:59.479Z" agent="Mozilla/5.0 (Windows NT 10.0; Win64; x64) AppleWebKit/537.36 (KHTML, like Gecko) draw.io/24.4.13 Chrome/124.0.6367.207 Electron/30.0.6 Safari/537.36" etag="2oIitAL0JPxaPE1_Cmw2" version="24.4.13" type="device">
  <diagram id="C5RBs43oDa-KdzZeNtuy" name="Page-1">
    <mxGraphModel dx="1272" dy="756" grid="1" gridSize="10" guides="1" tooltips="1" connect="1" arrows="1" fold="1" page="1" pageScale="1" pageWidth="827" pageHeight="1169" math="0" shadow="0">
      <root>
        <mxCell id="WIyWlLk6GJQsqaUBKTNV-0" />
        <mxCell id="WIyWlLk6GJQsqaUBKTNV-1" parent="WIyWlLk6GJQsqaUBKTNV-0" />
        <mxCell id="Eky1D9H_-bK8jlTfXVhQ-0" value="" style="rounded=0;whiteSpace=wrap;html=1;" vertex="1" parent="WIyWlLk6GJQsqaUBKTNV-1">
          <mxGeometry x="360" y="120" width="400" height="510" as="geometry" />
        </mxCell>
        <mxCell id="Eky1D9H_-bK8jlTfXVhQ-1" value="Voedselbank Maaskantje" style="text;html=1;align=center;verticalAlign=middle;resizable=0;points=[];autosize=1;strokeColor=none;fillColor=none;" vertex="1" parent="WIyWlLk6GJQsqaUBKTNV-1">
          <mxGeometry x="480" y="120" width="160" height="30" as="geometry" />
        </mxCell>
        <mxCell id="Eky1D9H_-bK8jlTfXVhQ-59" value="" style="edgeStyle=orthogonalEdgeStyle;rounded=0;orthogonalLoop=1;jettySize=auto;html=1;" edge="1" parent="WIyWlLk6GJQsqaUBKTNV-1" source="Eky1D9H_-bK8jlTfXVhQ-2" target="Eky1D9H_-bK8jlTfXVhQ-49">
          <mxGeometry relative="1" as="geometry">
            <mxPoint x="220" y="130.0000000000001" as="targetPoint" />
            <Array as="points">
              <mxPoint x="560" y="150" />
            </Array>
          </mxGeometry>
        </mxCell>
        <mxCell id="Eky1D9H_-bK8jlTfXVhQ-2" value="" style="shape=actor;whiteSpace=wrap;html=1;" vertex="1" parent="WIyWlLk6GJQsqaUBKTNV-1">
          <mxGeometry x="100" y="100" width="40" height="60" as="geometry" />
        </mxCell>
        <mxCell id="Eky1D9H_-bK8jlTfXVhQ-48" value="" style="edgeStyle=orthogonalEdgeStyle;rounded=0;orthogonalLoop=1;jettySize=auto;html=1;entryX=0;entryY=0.5;entryDx=0;entryDy=0;" edge="1" parent="WIyWlLk6GJQsqaUBKTNV-1" source="Eky1D9H_-bK8jlTfXVhQ-3" target="Eky1D9H_-bK8jlTfXVhQ-15">
          <mxGeometry relative="1" as="geometry">
            <mxPoint x="220" y="240" as="targetPoint" />
            <Array as="points">
              <mxPoint x="320" y="250" />
              <mxPoint x="320" y="310" />
            </Array>
          </mxGeometry>
        </mxCell>
        <mxCell id="Eky1D9H_-bK8jlTfXVhQ-3" value="" style="shape=actor;whiteSpace=wrap;html=1;" vertex="1" parent="WIyWlLk6GJQsqaUBKTNV-1">
          <mxGeometry x="100" y="210" width="40" height="60" as="geometry" />
        </mxCell>
        <mxCell id="Eky1D9H_-bK8jlTfXVhQ-56" value="" style="edgeStyle=orthogonalEdgeStyle;rounded=0;orthogonalLoop=1;jettySize=auto;html=1;entryX=-0.007;entryY=0.375;entryDx=0;entryDy=0;entryPerimeter=0;" edge="1" parent="WIyWlLk6GJQsqaUBKTNV-1" source="Eky1D9H_-bK8jlTfXVhQ-4" target="Eky1D9H_-bK8jlTfXVhQ-53">
          <mxGeometry relative="1" as="geometry">
            <mxPoint x="220" y="350" as="targetPoint" />
            <Array as="points">
              <mxPoint x="320" y="360" />
              <mxPoint x="320" y="390" />
            </Array>
          </mxGeometry>
        </mxCell>
        <mxCell id="Eky1D9H_-bK8jlTfXVhQ-4" value="" style="shape=actor;whiteSpace=wrap;html=1;" vertex="1" parent="WIyWlLk6GJQsqaUBKTNV-1">
          <mxGeometry x="100" y="320" width="40" height="60" as="geometry" />
        </mxCell>
        <mxCell id="Eky1D9H_-bK8jlTfXVhQ-5" value="Directeur" style="text;html=1;align=center;verticalAlign=middle;resizable=0;points=[];autosize=1;strokeColor=none;fillColor=none;" vertex="1" parent="WIyWlLk6GJQsqaUBKTNV-1">
          <mxGeometry x="85" y="168" width="70" height="30" as="geometry" />
        </mxCell>
        <mxCell id="Eky1D9H_-bK8jlTfXVhQ-6" value="Magazijnmedewerker" style="text;html=1;align=center;verticalAlign=middle;resizable=0;points=[];autosize=1;strokeColor=none;fillColor=none;" vertex="1" parent="WIyWlLk6GJQsqaUBKTNV-1">
          <mxGeometry x="50" y="280" width="140" height="30" as="geometry" />
        </mxCell>
        <mxCell id="Eky1D9H_-bK8jlTfXVhQ-7" value="Vrijwilliger" style="text;html=1;align=center;verticalAlign=middle;resizable=0;points=[];autosize=1;strokeColor=none;fillColor=none;" vertex="1" parent="WIyWlLk6GJQsqaUBKTNV-1">
          <mxGeometry x="80" y="400" width="80" height="30" as="geometry" />
        </mxCell>
        <mxCell id="Eky1D9H_-bK8jlTfXVhQ-28" value="" style="edgeStyle=orthogonalEdgeStyle;rounded=0;orthogonalLoop=1;jettySize=auto;html=1;entryX=0;entryY=0.5;entryDx=0;entryDy=0;" edge="1" parent="WIyWlLk6GJQsqaUBKTNV-1" source="Eky1D9H_-bK8jlTfXVhQ-12" target="Eky1D9H_-bK8jlTfXVhQ-14">
          <mxGeometry relative="1" as="geometry">
            <mxPoint x="220" y="490" as="targetPoint" />
          </mxGeometry>
        </mxCell>
        <mxCell id="Eky1D9H_-bK8jlTfXVhQ-12" value="" style="shape=actor;whiteSpace=wrap;html=1;" vertex="1" parent="WIyWlLk6GJQsqaUBKTNV-1">
          <mxGeometry x="100" y="550" width="40" height="60" as="geometry" />
        </mxCell>
        <mxCell id="Eky1D9H_-bK8jlTfXVhQ-13" value="Klant" style="text;html=1;align=center;verticalAlign=middle;resizable=0;points=[];autosize=1;strokeColor=none;fillColor=none;" vertex="1" parent="WIyWlLk6GJQsqaUBKTNV-1">
          <mxGeometry x="95" y="630" width="50" height="30" as="geometry" />
        </mxCell>
        <mxCell id="Eky1D9H_-bK8jlTfXVhQ-14" value="Bestelling Plaatsen" style="ellipse;whiteSpace=wrap;html=1;" vertex="1" parent="WIyWlLk6GJQsqaUBKTNV-1">
          <mxGeometry x="500" y="540" width="120" height="80" as="geometry" />
        </mxCell>
        <mxCell id="Eky1D9H_-bK8jlTfXVhQ-15" value="Voorraadbeheer" style="ellipse;whiteSpace=wrap;html=1;" vertex="1" parent="WIyWlLk6GJQsqaUBKTNV-1">
          <mxGeometry x="500" y="270" width="120" height="80" as="geometry" />
        </mxCell>
        <mxCell id="Eky1D9H_-bK8jlTfXVhQ-44" value="" style="edgeStyle=orthogonalEdgeStyle;rounded=0;orthogonalLoop=1;jettySize=auto;html=1;entryX=0;entryY=0.5;entryDx=0;entryDy=0;" edge="1" parent="WIyWlLk6GJQsqaUBKTNV-1" source="Eky1D9H_-bK8jlTfXVhQ-29" target="Eky1D9H_-bK8jlTfXVhQ-37">
          <mxGeometry relative="1" as="geometry">
            <mxPoint x="220" y="470" as="targetPoint" />
            <Array as="points">
              <mxPoint x="230" y="490" />
              <mxPoint x="230" y="490" />
            </Array>
          </mxGeometry>
        </mxCell>
        <mxCell id="Eky1D9H_-bK8jlTfXVhQ-29" value="" style="shape=actor;whiteSpace=wrap;html=1;" vertex="1" parent="WIyWlLk6GJQsqaUBKTNV-1">
          <mxGeometry x="100" y="440" width="40" height="60" as="geometry" />
        </mxCell>
        <mxCell id="Eky1D9H_-bK8jlTfXVhQ-30" value="Bezoeker (Nog niet ingelogd)" style="text;html=1;align=center;verticalAlign=middle;resizable=0;points=[];autosize=1;strokeColor=none;fillColor=none;" vertex="1" parent="WIyWlLk6GJQsqaUBKTNV-1">
          <mxGeometry x="30" y="520" width="180" height="30" as="geometry" />
        </mxCell>
        <mxCell id="Eky1D9H_-bK8jlTfXVhQ-37" value="Artikellijst bekijken" style="ellipse;whiteSpace=wrap;html=1;" vertex="1" parent="WIyWlLk6GJQsqaUBKTNV-1">
          <mxGeometry x="500" y="450" width="120" height="80" as="geometry" />
        </mxCell>
        <mxCell id="Eky1D9H_-bK8jlTfXVhQ-49" value="Leveranciers beheren" style="ellipse;whiteSpace=wrap;html=1;" vertex="1" parent="WIyWlLk6GJQsqaUBKTNV-1">
          <mxGeometry x="500" y="180" width="120" height="80" as="geometry" />
        </mxCell>
        <mxCell id="Eky1D9H_-bK8jlTfXVhQ-52" value="" style="endArrow=classic;html=1;rounded=0;exitX=0.75;exitY=1;exitDx=0;exitDy=0;entryX=0;entryY=0;entryDx=0;entryDy=0;" edge="1" parent="WIyWlLk6GJQsqaUBKTNV-1" source="Eky1D9H_-bK8jlTfXVhQ-2" target="Eky1D9H_-bK8jlTfXVhQ-15">
          <mxGeometry width="50" height="50" relative="1" as="geometry">
            <mxPoint x="390" y="320" as="sourcePoint" />
            <mxPoint x="440" y="270" as="targetPoint" />
          </mxGeometry>
        </mxCell>
        <mxCell id="Eky1D9H_-bK8jlTfXVhQ-53" value="Voedselpakket samenstellen" style="ellipse;whiteSpace=wrap;html=1;" vertex="1" parent="WIyWlLk6GJQsqaUBKTNV-1">
          <mxGeometry x="500" y="360" width="120" height="80" as="geometry" />
        </mxCell>
        <mxCell id="Eky1D9H_-bK8jlTfXVhQ-57" value="" style="endArrow=classic;html=1;rounded=0;exitX=1;exitY=0.75;exitDx=0;exitDy=0;entryX=0;entryY=0;entryDx=0;entryDy=0;" edge="1" parent="WIyWlLk6GJQsqaUBKTNV-1" source="Eky1D9H_-bK8jlTfXVhQ-4" target="Eky1D9H_-bK8jlTfXVhQ-37">
          <mxGeometry width="50" height="50" relative="1" as="geometry">
            <mxPoint x="390" y="320" as="sourcePoint" />
            <mxPoint x="440" y="270" as="targetPoint" />
          </mxGeometry>
        </mxCell>
      </root>
    </mxGraphModel>
  </diagram>
</mxfile>
